<?xml version="1.0" encoding="UTF-8" standalone="no"?>
<!-- Created with Inkscape (http://www.inkscape.org/) -->

<svg
   width="240mm"
   height="240mm"
   viewBox="0 0 240 240"
   version="1.1"
   id="svg1"
   xml:space="preserve"
   inkscape:version="1.4.4 (dcaf3e7, 2026-05-05)"
   sodipodi:docname="logo-svg.svg"
   xmlns:inkscape="http://www.inkscape.org/namespaces/inkscape"
   xmlns:sodipodi="http://sodipodi.sourceforge.net/DTD/sodipodi-0.dtd"
   xmlns="http://www.w3.org/2000/svg"
   xmlns:svg="http://www.w3.org/2000/svg"><sodipodi:namedview
     id="namedview1"
     pagecolor="#ffffff"
     bordercolor="#000000"
     borderopacity="0.25"
     inkscape:showpageshadow="2"
     inkscape:pageopacity="0.0"
     inkscape:pagecheckerboard="0"
     inkscape:deskcolor="#d1d1d1"
     inkscape:document-units="mm"
     inkscape:zoom="0.89887065"
     inkscape:cx="444.44659"
     inkscape:cy="317.62078"
     inkscape:window-width="3840"
     inkscape:window-height="2008"
     inkscape:window-x="0"
     inkscape:window-y="30"
     inkscape:window-maximized="1"
     inkscape:current-layer="layer1" /><defs
     id="defs1" /><g
     inkscape:label="Layer 1"
     inkscape:groupmode="layer"
     id="layer1"
     transform="translate(12.583455,-87.987861)"><path
       style="fill:#9c0000;fill-opacity:1"
       d="m 218.35869,243.58151 c -0.0657,-0.0643 -4.39922,-0.16887 -9.63007,-0.23233 -32.72415,-0.39701 -32.16543,-0.34027 -34.33813,-3.48726 -1.69976,-2.462 -2.27763,-56.31072 -0.63056,-58.85786 2.13945,-3.30765 5.0873,-4.03327 41.67772,-3.30676 10.95234,0.21747 12.02765,0.24697 11.90772,10.98824 -0.074,6.62624 -0.41222,7.57078 -3.17269,8.85966 -4.43214,2.06942 -8.68373,-0.5026 -8.73408,-5.28371 -0.048,-4.55891 -0.46107,-4.68401 -15.39578,-4.66255 -16.14381,0.0232 -15.93468,-0.0882 -15.54715,8.27834 0.23538,5.08175 0.79926,6.26215 3.97041,8.31168 4.9601,3.20569 4.68649,2.4055 5.02671,14.701 0.38002,13.73323 -0.2965,12.97574 11.76229,13.17013 9.39324,0.15142 10.59841,-0.40123 10.55168,-4.83867 -0.0805,-7.64887 8.20598,-10.77983 11.34413,-4.28621 1.78181,3.68703 0.86464,16.96976 -1.30517,18.90183 -1.06584,0.94905 -6.90941,2.31051 -7.48751,1.74447 z m -63.25123,-1.38042 c -2.56631,-0.95446 -3.3657,-1.63705 -4.2779,-3.65286 -0.67418,-1.48982 -1.3711,-54.21962 -0.74979,-56.76959 0.88244,-3.62163 5.19378,-5.44011 8.87178,-3.74201 2.49341,1.1512 2.52318,0.75337 2.84077,12.00123 0.319,11.29828 0.34748,11.42939 2.86719,13.20016 6.48578,4.55802 6.12534,3.36499 6.30984,20.88497 0.16323,15.50024 0.0922,15.82195 -3.99001,18.06228 -0.94688,0.51966 -10.483,0.53236 -11.87188,0.0158 z M 84.118217,241.9743 c -2.68573,-1.62262 -2.74733,-1.91844 -3.07996,-14.79048 -0.3798,-14.69784 0.59109,-13.50451 -10.901422,-13.39912 -10.255299,0.094 -9.638501,-0.76868 -9.650511,13.49833 -0.0094,11.19701 -0.06986,11.58797 -2.082123,13.47048 -3.013713,2.81938 -12.402637,2.8022 -15.076723,-0.0276 -2.099384,-2.22164 -2.030571,-1.6926 -2.189415,-16.8321 -0.169532,-16.15809 -0.263305,-15.5976 2.986639,-17.85087 4.864719,-3.37284 4.920648,-3.53897 4.766218,-14.15782 -0.194692,-13.38691 0.167774,-15.28447 16.208888,-15.45341 19.499639,-0.20535 19.294049,1.23556 19.453349,15.45898 0.11658,10.40502 0.12324,10.42545 4.33484,13.2198 4.07551,2.70405 3.74882,1.16771 3.93121,18.48744 0.15839,15.03987 0.15839,15.03987 -0.81846,16.34909 -1.92072,2.57426 -5.46739,3.48641 -7.88253,2.02728 z M 70.861361,202.14319 c 2.661232,-1.41189 3.129792,-10.09804 0.661113,-12.25572 -1.921929,-1.67982 -8.805501,-1.34127 -10.314906,0.50731 -1.881806,2.30465 -1.358032,9.76178 0.81175,11.55714 1.174903,0.97215 7.127463,1.10092 8.842043,0.19127 z m 28.875646,39.89955 c -3.98413,-1.37217 -4.45514,-2.46978 -4.54127,-10.58272 -0.10418,-9.81292 1.264,-12.84657 5.815473,-12.8945 4.04429,-0.0426 5.3552,1.54738 5.72699,6.94615 0.38033,5.52267 0.4002,5.53421 9.91421,5.75793 11.14577,0.2621 11.17703,0.23688 11.0804,-8.93915 -0.10137,-9.62583 0.60627,-9.21244 -15.65603,-9.14591 -18.473443,0.0756 -17.552563,1.04102 -17.560583,-18.41015 -0.008,-19.00566 -2.51947,-17.28532 26.035463,-17.83295 27.06071,-0.51896 26.60412,-0.70304 27.03657,10.90035 0.2113,5.66943 0.18611,5.99554 -0.58151,7.52747 -2.73857,5.46541 -10.38785,3.79373 -11.15693,-2.43825 -0.6142,-4.97683 -0.58798,-4.96766 -14.1233,-4.93265 -14.14938,0.0366 -13.00533,-0.0706 -14.53602,1.36214 -1.29732,1.21428 -1.29732,1.21428 -1.15119,5.54238 0.25314,7.49751 -0.93033,7.08064 20.24499,7.13131 23.37811,0.056 21.45971,-1.69239 21.95438,20.00838 0.50194,22.01981 3.05192,19.98855 -25.44429,20.26828 -17.67367,0.17352 -21.91848,0.12413 -23.057353,-0.26811 z m -97.2109252,0.48875 c -5.53065,-0.0523 -10.09024,-0.12825 -10.132425,-0.16871 -0.04218,-0.0405 -0.643004,-0.56033 -1.335155,-1.15525 -0.6921523,-0.59492 -1.2614888,-1.3695 -1.2651928,-1.72126 -0.0037,-0.35177 -0.205858,-0.7036 -0.449231,-0.78186 -0.347527,-0.11173 -0.522886,-5.77606 -0.817073,-26.39239 -0.410291,-28.75281 -0.472375,-29.1985 1.6296845,-31.5595 0.4342,-0.48769 0.7885073,-0.97683 0.7873473,-1.08699 -0.0094,-0.894 7.88491,-2.12835 13.912585,-2.17536 0.388045,-0.003 4.774747,-0.0724 9.7482282,-0.15416 9.417871,-0.15478 10.115814,-0.10153 12.548323,0.95013 3.031012,1.31097 3.10583,3.17547 3.4231,14.26055 0.260522,9.10236 0.326594,9.805 0.993227,10.56248 1.309475,1.48792 1.456775,1.61305 2.543486,2.16057 1.388942,0.69981 3.663936,2.92616 4.083836,3.99651 0.762114,1.94268 0.678021,28.26682 -0.0948,29.67642 -2.074456,3.78375 -3.180468,3.89531 -35.5759382,3.5888 z m 22.8817762,-11.5516 c 2.867438,-1.37057 3.335556,-13.38175 0.618948,-15.88125 -1.084608,-0.99794 -16.3330082,-1.22022 -16.6478512,-0.2427 -0.07838,0.24337 -0.340579,0.44459 -0.582651,0.44714 -1.115783,0.0118 -1.505313,3.30689 -1.233416,10.43383 0.146809,3.84817 1.071808,5.03802 4.2000982,5.40268 3.313147,0.38623 12.733395,0.27597 13.644872,-0.15969 z m -8.003071,-28.15688 c 2.660335,-1.24612 2.986358,-10.37984 0.443813,-12.43366 -0.946226,-0.76434 -14.0358152,-0.7602 -16.0926862,0.005 -2.63499997,0.9804 -3.380907,10.23073 -0.97459798,12.08646 1.29954198,1.00219 14.62865018,1.2765 16.62347118,0.34211 z"
       id="path1"
       sodipodi:nodetypes="csscssssssssssssccsssssssssssscssssssscsssssssssssssssscssssssscsssscsssssscccsssssssssscsssscscscc" /></g></svg>
